<?xml version="1.0" encoding="utf-8"?>
<!-- Svg Vector Icons : http://www.onlinewebfonts.com/icon -->
<!DOCTYPE svg PUBLIC "-//W3C//DTD SVG 1.1//EN" "http://www.w3.org/Graphics/SVG/1.1/DTD/svg11.dtd">
<svg version="1.1" xmlns="http://www.w3.org/2000/svg" xmlns:xlink="http://www.w3.org/1999/xlink" x="0px" y="0px" viewBox="0 0 1000 1000" enable-background="new 0 0 1000 1000" xml:space="preserve">
<metadata> Svg Vector Icons : http://www.onlinewebfonts.com/icon </metadata>
<g><g transform="translate(0.000000,511.000000) scale(0.100000,-0.100000)"><path d="M229.6,2729.2L112,2625.8L101.3,865.5c-3.6-965.7,0-1796,10.7-1838.7c10.7-46.3,64.1-124.7,114-171.1c85.5-78.4,121.2-85.5,441.9-85.5c413.4,0,402.7,14.2,395.5-498.9c-7.1-292.2,3.5-356.3,74.8-477.5c174.6-306.4,523.8-466.8,833.9-384.8c299.3,78.4,534.5,327.9,577.3,609.3l21.4,128.3H2781h210.2l42.8-167.5c78.4-310,320.7-531,648.5-584.4c349.2-53.5,719.8,196,819.6,559.5l57,206.7l228.1,25c310,32.1,470.4,0,769.7-156.8l256.6-131.8l826.7-17.8l826.7-17.8l106.9-149.7c185.3-253,520.2-377.7,819.6-295.8c160.4,42.8,449,277.9,484.6,395.5c21.4,60.6,60.6,67.7,409.8,67.7c359.9,0,395.5,7.1,488.2,85.5c96.2,82,99.8,103.3,117.6,491.8c10.7,220.9,7.1,677-3.5,1008.4l-17.8,605.8l-203.1,534.5c-114,292.2-231.6,570.1-260.1,616.5c-114,174.6-224.5,188.9-1279.3,178.2c-883.7-10.7-983.5-17.8-1040.5-74.8c-57-57-64.1-163.9-74.8-1218.7l-10.7-1158.1h-192.4h-196V769.3c0,1179.5-14.2,1842.3-35.6,1888.6c-96.2,178.2-24.9,174.6-3239.1,174.6H343.6L229.6,2729.2z M6401.4,2551c21.4-46.3,35.6-662.8,35.6-1756.8c0-1404-7.1-1699.8-49.9-1760.3c-49.9-64.1-128.3-67.7-3011.1-74.8c-2644.1-10.7-2961.2-3.5-3011.1,46.3c-49.9,49.9-57,263.7-57,1792.4c0,1300.6,10.7,1746.1,42.8,1778.1c32.1,32.1,751.9,42.8,3028.9,42.8C6294.5,2618.7,6365.8,2618.7,6401.4,2551z M9223.6,1132.7c28.5-35.6,146.1-313.6,260.1-616.5l206.7-552.3l3.6-498.9l3.6-498.9l-1236.5-10.7l-1240.1-7.1V70.8v1122.5h972.8C9081.1,1193.3,9173.7,1186.2,9223.6,1132.7z M1305.8-1265.4c0-17.8-14.3-35.6-35.6-35.6c-17.8,0-35.6,17.8-35.6,35.6c0,21.4,17.8,35.6,35.6,35.6C1291.5-1229.8,1305.8-1244.1,1305.8-1265.4z M3222.9-1326c-49.9-57-117.6-153.2-149.6-213.8c-57-114-64.2-117.6-288.6-117.6s-228.1,3.6-285.1,121.1c-32.1,67.7-89.1,149.7-128.3,185.3c-35.6,32.1-67.7,74.8-67.7,92.7c0,14.2,228.1,28.5,506,28.5h506L3222.9-1326z M7637.9-1326c-114-121.2-203.1-327.8-203.1-473.9v-106.9h-780.4h-776.9l-281.5,142.5c-277.9,138.9-288.7,142.5-673.5,142.5h-395.5l-128.3,196l-128.3,196h1731.8h1731.8L7637.9-1326z M9708.2-1504.2c14.3-388.4,0-402.7-399.1-402.7h-331.4l-42.8,192.4c-24.9,106.9-89.1,260.2-149.6,342.1l-106.9,146.1l509.6-10.7l509.6-10.7L9708.2-1504.2z M2050.5-1354.5c153.2-78.4,278-245.9,306.5-409.8c17.8-114,7.1-178.2-60.6-310c-117.6-238.8-235.2-313.6-491.7-313.6c-256.6,0-374.2,74.8-495.3,317.1c-78.4,160.4-82,185.3-42.8,338.5c49.9,181.8,110.5,267.3,270.8,363.5C1665.7-1286.8,1911.5-1279.7,2050.5-1354.5z M4035.3-1358.1c74.8-35.6,160.4-121.1,217.4-217.4c277.9-473.9-253-1022.7-737.6-762.6c-374.2,196-388.4,744.8-28.5,965.7C3629.1-1286.8,3867.8-1279.7,4035.3-1358.1z M8514.5-1390.1c53.5-39.2,128.3-139,171-224.5c267.3-541.7-431.2-1051.2-873-637.9c-270.8,256.6-224.5,680.6,96.2,883.7C8054.8-1276.1,8372-1290.4,8514.5-1390.1z"/><path d="M8069.1,776.4c-213.8-24.9-242.3-96.2-242.3-637.8c0-652.1-17.8-634.3,630.7-648.5c566.6-14.3,719.8,10.7,791.1,142.5c46.3,82,42.7,135.4-53.4,548.8c-139,616.5-146.1,623.6-627.2,612.9C8364.8,790.7,8140.4,783.5,8069.1,776.4z M8981.3,195.6c49.9-217.4,92.6-416.9,92.6-445.4c0-46.3-85.5-53.5-516.7-53.5h-516.7v445.4v445.4h424.1h424L8981.3,195.6z"/></g></g>
</svg>